<?xml version="1.0" standalone="no"?>
<!DOCTYPE svg PUBLIC "-//W3C//DTD SVG 20010904//EN"
 "http://www.w3.org/TR/2001/REC-SVG-20010904/DTD/svg10.dtd">
<svg version="1.0" xmlns="http://www.w3.org/2000/svg"
 width="1024.000000pt" height="1024.000000pt" viewBox="0 0 1024.000000 1024.000000"
 preserveAspectRatio="xMidYMid meet">
<metadata>
Created by potrace 1.11, written by Peter Selinger 2001-2013
</metadata>
<g transform="translate(0.000000,1024.000000) scale(0.100000,-0.100000)"
fill="#000000" stroke="none">
<path d="M1558 8738 c21 -29 59 -82 83 -118 25 -36 151 -216 280 -400 310
-442 298 -425 349 -500 25 -36 49 -69 53 -75 5 -5 79 -111 165 -235 139 -199
424 -605 585 -835 31 -44 94 -134 140 -200 46 -66 175 -250 287 -410 112 -159
233 -333 269 -385 35 -52 67 -97 70 -100 4 -3 20 -25 36 -50 17 -24 76 -110
132 -189 l102 -144 -46 -66 c-25 -36 -76 -108 -112 -160 -99 -140 -118 -167
-189 -271 -36 -52 -82 -117 -102 -145 -20 -27 -63 -88 -95 -135 -32 -47 -71
-103 -87 -125 -16 -22 -60 -85 -98 -140 -38 -55 -85 -122 -105 -150 -19 -27
-51 -72 -69 -100 -27 -39 -167 -238 -236 -335 -6 -8 -130 -186 -276 -395 -146
-209 -272 -389 -280 -400 -69 -95 -555 -789 -569 -813 -5 -9 -14 -21 -18 -26
-38 -52 -247 -351 -259 -371 -4 -7 331 -10 1003 -10 l1009 0 60 85 c32 47 90
129 127 183 37 54 79 113 93 132 14 18 88 124 165 236 77 111 156 224 175 250
19 26 134 190 255 364 121 174 237 340 257 368 58 81 70 98 233 332 85 121
189 270 231 330 67 94 286 408 389 555 17 25 154 220 305 435 150 214 273 394
273 400 0 8 -197 295 -287 420 -23 31 -661 942 -709 1011 -23 34 -384 550
-802 1148 l-760 1086 -1033 0 -1033 0 39 -52z"/>
<path d="M6570 8610 c-69 -99 -132 -189 -140 -200 -8 -10 -61 -86 -118 -167
-230 -330 -314 -450 -348 -498 -19 -27 -104 -149 -189 -270 -85 -121 -207
-295 -272 -387 -65 -93 -119 -174 -121 -182 -2 -7 3 -20 10 -28 7 -7 18 -21
23 -31 11 -17 463 -665 477 -682 5 -5 73 -102 152 -215 300 -429 331 -473 341
-476 8 -3 89 106 130 174 6 9 13 19 16 22 3 3 65 91 137 195 72 105 135 195
139 200 5 6 124 174 264 375 368 526 443 634 583 836 49 71 92 131 96 134 3 3
20 25 37 50 35 52 152 220 253 365 39 55 91 129 116 165 25 36 64 92 88 125
56 80 125 177 213 305 122 175 183 263 219 313 19 26 34 49 34 52 0 3 -453 5
-1007 5 l-1008 0 -125 -180z"/>
<path d="M6073 4325 c-175 -250 -363 -519 -418 -598 -114 -161 -178 -252 -246
-351 l-48 -68 53 -82 c29 -44 138 -209 241 -366 104 -157 258 -391 343 -520
86 -129 225 -341 310 -470 85 -129 182 -277 216 -328 l61 -93 1062 3 c585 2
1063 6 1063 10 0 10 -142 212 -152 216 -4 2 -8 7 -8 12 0 6 -220 327 -320 465
-12 17 -64 91 -116 165 -52 74 -101 143 -109 153 -8 9 -15 19 -15 22 0 3 -31
49 -69 102 -39 54 -84 118 -101 143 -17 25 -80 115 -140 200 -117 167 -268
382 -340 485 -25 36 -81 116 -125 179 -44 64 -107 153 -140 200 -33 46 -66 92
-73 103 -59 85 -333 478 -350 501 -7 9 -68 97 -137 195 l-123 178 -319 -456z"/>
</g>
</svg>
